Coordinates
version=1
nRows=14
nColumns=36
inDegrees=yes

Units are S.I. units (second, meters, Newtons, ...)
If the header above contains a line with 'inDegrees', this indicates whether rotational values are in degrees (yes) or radians (no).

endheader
time	pelvis_tilt	pelvis_list	pelvis_rotation	pelvis_tx	pelvis_ty	pelvis_tz	hip_flexion_r	hip_adduction_r	hip_rotation_r	knee_angle_r	knee_angle_r_beta	ankle_angle_r	subtalar_angle_r	mtp_angle_r	hip_flexion_l	hip_adduction_l	hip_rotation_l	knee_angle_l	knee_angle_l_beta	ankle_angle_l	subtalar_angle_l	mtp_angle_l	lumbar_extension	lumbar_bending	lumbar_rotation	arm_flex_r	arm_add_r	arm_rot_r	elbow_flex_r	pro_sup_r	arm_flex_l	arm_add_l	arm_rot_l	elbow_flex_l	pro_sup_l
      4.85000000	     -1.21028649	     10.93840353	     15.65658209	      0.69184311	      0.89311236	      0.10225722	     -8.12456630	    -14.65287364	      1.44451259	      0.26221622	      0.00457654	      4.25290705	    -14.09477304	     -7.49999987	      1.14686215	      7.81735465	     26.69662696	      0.90402089	      0.01577814	    -24.34979014	    -34.66653919	     -7.49999987	    -22.75539315	    -17.48015437	      8.26354756	     -6.37028769	     -1.30431728	    -22.39964130	     29.20329267	     83.32132035	     10.74481366	    -21.01185228	    -23.47292877	     22.40751751	     88.38692332
      4.86666670	     -1.46012281	     11.12607519	     15.84349473	      0.69362528	      0.89320877	      0.09877244	     -8.22387218	    -14.99849546	      1.08905923	      0.24984832	      0.00436068	      4.56599513	    -13.66649739	     -7.49999987	      1.32399307	      8.20396481	     26.35075134	      1.06497921	      0.01858739	    -24.29586064	    -34.67180033	     -7.49999987	    -22.61077965	    -17.96441663	      8.78724348	     -5.72104926	     -1.16360839	    -21.14569899	     30.49721897	     83.46129751	     11.49746953	    -20.49463946	    -22.35453805	     23.48227005	     88.90701670
      4.88333330	     -1.65469577	     11.27226124	     16.17715023	      0.69315991	      0.89939104	      0.09571322	     -8.36167952	    -15.30636282	      0.68370316	      0.24207042	      0.00422493	      4.38001650	    -13.62694137	     -7.49999987	      1.66111424	      8.59397533	     25.45533924	      1.38194853	      0.02411955	    -24.34793940	    -34.67945253	     -7.49999987	    -22.57283043	    -18.21709684	      8.65731371	     -4.25369642	     -0.84399688	    -20.78010410	     31.11054136	     83.51084243	     12.31320310	    -19.69964213	    -21.97249135	     23.77489631	     89.00812639
      4.90000000	     -1.63977020	     11.65977015	     16.58835289	      0.69758232	      0.90174364	      0.09366440	     -8.91414218	    -15.74588527	     -0.03416690	      0.22269587	      0.00388678	      4.61438760	    -13.07588269	     -7.49999987	      1.87842011	      9.15514617	     23.91776773	      2.15529394	      0.03761698	    -24.06863896	    -34.68499220	     -7.49999987	    -22.81361339	    -18.82330666	      9.40797042	     -3.73332174	     -1.03878035	    -17.43341987	     33.03412930	     83.50408391	     13.89843816	    -19.41125838	    -15.78757458	     23.61916837	     90.23405689
      4.91666670	     -1.71478971	     11.98332701	     17.24662575	      0.69636799	      0.90265194	      0.09010960	     -9.40123310	    -16.12626773	     -0.94433524	      0.20847438	      0.00363856	      4.64521942	    -12.70867398	     -7.49999987	      2.41875074	      9.66638094	     21.69874235	      3.18723224	      0.05562770	    -23.78094531	    -34.69452636	     -7.49999987	    -23.18614105	    -19.26231203	      9.75520416	     -2.78519729	     -0.85766500	    -15.68088590	     34.92750542	     81.16886025	     15.79691219	    -18.49539797	    -10.72055830	     23.33437651	     87.45038589
      4.93333330	     -1.91174535	     12.28357439	     18.20710493	      0.69039526	      0.90211011	      0.08516148	     -9.71153569	    -16.58244752	     -1.95530755	      0.19673574	      0.00343369	      4.61045018	    -12.47485617	     -7.49999987	      3.37574280	     10.24519938	     18.98179668	      4.27419054	      0.07459870	    -23.25852333	    -34.70666476	     -7.49999987	    -23.70392057	    -19.63247489	      9.88294316	     -1.46958381	     -0.94998372	    -14.16524971	     37.01744715	     80.79661119	     17.98379490	    -17.12357844	     -6.68283708	     23.08311512	     86.11456882
      4.95000000	     -2.07610533	     12.54403866	     19.40964424	      0.68948794	      0.90255274	      0.07757812	    -10.18073845	    -17.03796762	     -3.08626524	      0.18989103	      0.00331422	      4.05796046	    -12.52983360	     -7.49999987	      4.35119138	     10.83262547	     15.85726574	      5.20057262	      0.09076712	    -23.06689554	    -34.71621640	     -7.49999987	    -24.46514969	    -19.74955589	      9.81873199	     -0.07841455	     -1.19077946	    -13.30250851	     39.26721300	     81.00991412	     20.17346638	    -15.43281495	     -2.19408895	     22.64123570	     84.39908935
      4.96666670	     -2.30051018	     12.64138384	     20.61559435	      0.68239094	      0.90103454	      0.07399543	    -10.34650793	    -17.39886490	     -4.00800460	      0.19352535	      0.00337765	      3.51379846	    -13.02180197	     -7.49999987	      5.79347319	     11.33288381	     12.18539953	      6.32276456	      0.11035306	    -22.62289773	    -34.72651145	     -7.49999987	    -25.29387708	    -19.69850118	      9.40137916	      1.65727322	     -1.82696141	    -11.30331074	     41.85983483	     80.16709247	     22.19931631	    -13.47547008	     -0.27057785	     22.44087544	     82.53019603
      4.98333330	     -2.29656868	     12.76732205	     21.63220759	      0.68271574	      0.90340907	      0.06830065	    -10.76520066	    -17.77128277	     -4.75257035	      0.19978135	      0.00348684	      3.01618815	    -13.30710957	     -7.49999987	      6.93049034	     11.75384347	      8.47322890	      7.36040229	      0.12846325	    -22.53026626	    -34.73428778	     -7.49999987	    -26.21276079	    -19.49456876	      9.15927570	      3.25020837	     -2.42948518	    -10.21990028	     44.82901453	     81.15907697	     23.88843719	    -11.32443364	      2.86637239	     22.49228188	     83.04877772
      5.00000000	     -2.22829734	     12.77254680	     22.70768914	      0.67966296	      0.89652752	      0.06332386	    -11.21566312	    -17.95412904	     -5.35694561	      0.21408320	      0.00373646	      2.42653884	    -14.21744129	     -7.49999987	      8.20638952	     11.97632273	      4.51929154	      8.78905476	      0.15339794	    -22.29988680	    -34.74198388	     -7.49999987	    -27.00503229	    -19.27683862	      9.14319430	      4.67431492	     -2.78222723	    -10.50850126	     47.71499216	     84.69519050	     26.21526498	     -9.35661465	      9.87657183	     21.85577348	     79.54105529
      5.01666670	     -1.93936395	     12.86621134	     23.79738648	      0.69009854	      0.89198404	      0.05319229	    -12.38541113	    -18.09512093	     -6.07132758	      0.23479173	      0.00409789	      2.02677665	    -15.10592485	     -7.49999987	      8.97420177	     12.13293462	      1.02691375	     10.49205074	      0.18312083	    -22.09699223	    -34.74952317	     -7.49999987	    -27.71372198	    -18.96009841	      8.32013867	      6.14751549	     -3.17753033	     -9.40187535	     50.28605712	     84.71704394	     27.01222723	     -7.44736573	     11.30938421	     22.16675545	     79.71269320
      5.03333330	     -1.70833937	     12.98317558	     24.49809808	      0.68666266	      0.89615913	      0.04686905	    -13.31990763	    -18.36421438	     -5.98935586	      0.28499101	      0.00497403	      0.82031564	    -17.03648159	     -7.49999987	      9.55680112	     12.29155011	     -2.28409374	     11.91013687	      0.20787110	    -21.76264346	    -34.75717861	     -7.49999987	    -28.13416154	    -18.99233489	      8.34344138	      7.55184966	     -3.68206203	     -8.83145845	     52.41483710	     83.26307372	     28.31714848	     -5.61374920	     16.98906010	     21.74935719	     78.89662079
      5.05000000	     -1.26866458	     13.27791893	     25.10973664	      0.69394165	      0.89507219	      0.03835679	    -14.69038105	    -18.69205231	     -5.99958191	      0.35896874	      0.00626519	     -0.41549926	    -18.88478571	     -7.49999987	      9.33740568	     12.50152720	     -4.83411015	     13.10463757	      0.22871907	    -21.37209931	    -34.76283846	     -7.49999987	    -28.53830889	    -19.09478743	      7.93345571	      8.87695410	     -3.90531089	     -8.28935521	     54.05239470	     83.66381229	     28.73581037	     -4.07506885	     20.33535735	     22.14413929	     79.09774055
      5.06666670	     -0.78000897	     13.75596183	     25.60409230	      0.70051986	      0.90358515	      0.02999230	    -16.22100361	    -19.15039213	     -5.80859710	      0.48651844	      0.00849135	     -2.16293000	    -20.95376168	     -7.49999987	      8.39677342	     12.92671831	     -6.76194432	     13.56343659	      0.23672663	    -21.27379550	    -34.76476873	     -7.49999987	    -28.89184092	    -19.42823246	      7.67656144	     10.05130405	     -3.89810124	     -8.34507150	     54.76216062	     84.05824380	     28.93895010	     -2.61286506	     23.99855115	     22.00371665	     79.41580663
